<?xml version="1.0" encoding="UTF-8"?>
<svg version="1.1" xmlns="http://www.w3.org/2000/svg" width="160" height="170">
<path d="M0 0 C52.8 0 105.6 0 160 0 C160 56.1 160 112.2 160 170 C107.2 170 54.4 170 0 170 C0 113.9 0 57.8 0 0 Z " fill="#FEFEFE" transform="translate(0,0)"/>
<path d="M0 0 C7.60730845 7.02548754 11.91346251 15.91506879 14 26 C14 27.98 14 29.96 14 32 C6.08 32 -1.84 32 -10 32 C-10 35.3 -10 38.6 -10 42 C-2.08 42 5.84 42 14 42 C14 59.49 14 76.98 14 95 C5.75 95 -2.5 95 -11 95 C-11.495 91.04 -11.495 91.04 -12 87 C-12.66 87.7425 -13.32 88.485 -14 89.25 C-20.16764559 95.41764559 -29.13555164 98.27748634 -37.6875 98.375 C-47.4112204 98.23124912 -56.52685804 95.39225809 -63.5859375 88.4375 C-70.4368774 80.95159494 -72.35471035 72.84174674 -72.20703125 62.83984375 C-71.51234705 53.31087373 -67.02955147 47.65617865 -60.2109375 41.34375 C-46.79068968 30.86419393 -27.14186736 31.11105291 -11 31 C-11.45416283 29.55946112 -11.91511879 28.12106282 -12.37890625 26.68359375 C-12.63486572 25.88236084 -12.8908252 25.08112793 -13.15454102 24.25561523 C-14.50767759 20.64555783 -16.44199361 18.04979955 -19.640625 15.89453125 C-25.58516091 13.64072542 -34.41608526 14.06482225 -40.5 15.65234375 C-43.78223887 17.30053698 -45.1065338 19.19176083 -46.875 22.375 C-48.19649006 26.34425239 -48.19649006 26.34425239 -49 32 C-57.58 32 -66.16 32 -75 32 C-75 19.9575269 -71.50316637 11.71339804 -63.1875 3.12890625 C-46.15997408 -12.8343993 -18.57112779 -13.82690691 0 0 Z " fill="#131B2A" transform="translate(107,38)"/>
<path d="M0 0 C7.60730845 7.02548754 11.91346251 15.91506879 14 26 C14 27.98 14 29.96 14 32 C6.08 32 -1.84 32 -10 32 C-10 35.3 -10 38.6 -10 42 C-10.33 42 -10.66 42 -11 42 C-11 38.7 -11 35.4 -11 32 C-13.64 32 -16.28 32 -19 32 C-19 31.67 -19 31.34 -19 31 C-16.36 31 -13.72 31 -11 31 C-13.47196959 22.29322313 -13.47196959 22.29322313 -19.640625 15.89453125 C-25.58516091 13.64072542 -34.41608526 14.06482225 -40.5 15.65234375 C-43.78223887 17.30053698 -45.1065338 19.19176083 -46.875 22.375 C-48.19649006 26.34425239 -48.19649006 26.34425239 -49 32 C-57.58 32 -66.16 32 -75 32 C-75 19.9575269 -71.50316637 11.71339804 -63.1875 3.12890625 C-46.15997408 -12.8343993 -18.57112779 -13.82690691 0 0 Z " fill="#151D2B" transform="translate(107,38)"/>
<path d="M0 0 C0.47753651 6.56612703 -0.55673164 11.33202254 -4 17 C-9.19707728 22.19707728 -14.28533438 23.30285334 -21.5 23.375 C-22.7890625 23.40335938 -24.078125 23.43171875 -25.40625 23.4609375 C-29.55988271 22.92818896 -31.16706035 22.04395936 -34 19 C-35.16424271 16.00086787 -35.2691045 13.19490025 -35 10 C-32.75016399 5.3980627 -29.06439117 3.63575695 -24.48046875 1.78125 C-16.63157055 -0.69084392 -8.13562492 -0.12580863 0 0 Z " fill="#F8F9F9" transform="translate(96,90)"/>
</svg>
